<svg width="185" height="25" viewBox="0 0 185 25" fill="none" xmlns="http://www.w3.org/2000/svg">
<g id="Group">
<g id="Group_2">
<path id="Vector" d="M51.3806 24.5628H43.2638V0.429749H51.216C53.556 0.429749 55.6035 0.93408 57.395 1.96142C59.1683 2.97007 60.5576 4.38966 61.5448 6.20151C62.532 8.01336 63.0255 10.1241 63.0255 12.5336C63.0255 14.9059 62.532 16.9792 61.5631 18.7911C60.5942 20.6029 59.2231 22.0038 57.4864 23.0312C55.7314 24.0585 53.7022 24.5628 51.3806 24.5628ZM46.9383 2.16689V22.8817L45.1833 21.1259H51.0881C52.7516 21.1259 54.1958 20.771 55.3841 20.0799C56.5906 19.3888 57.523 18.3988 58.1811 17.11C58.8392 15.8211 59.1683 14.3081 59.1683 12.571C59.1683 10.7778 58.8392 9.22748 58.1628 7.93864C57.4864 6.6498 56.5358 5.64115 55.3293 4.95003C54.1044 4.25892 52.6419 3.90402 50.9235 3.90402H45.1833L46.9383 2.16689Z" fill="white"/>
<path id="Vector_2" d="M73.4823 24.9923C71.9101 24.9923 70.5025 24.6187 69.3142 23.8902C68.1077 23.1618 67.1753 22.1531 66.4806 20.8456C65.8042 19.5567 65.4569 18.0624 65.4569 16.3813C65.4569 14.6816 65.786 13.1873 66.4441 11.8984C67.1022 10.6096 68.0345 9.60092 69.2228 8.85376C70.4111 8.10661 71.7821 7.73303 73.3543 7.73303C74.9082 7.73303 76.261 8.06926 77.3944 8.74169C78.5278 9.41413 79.4236 10.3668 80.0634 11.5996C80.7033 12.8324 81.014 14.2706 81.014 15.9331V17.1285L67.3033 17.1659L67.3764 14.8497H77.5041C77.5041 13.5795 77.1385 12.5895 76.3889 11.8424C75.6394 11.0952 74.634 10.7216 73.3543 10.7216C72.3854 10.7216 71.5445 10.9271 70.8681 11.3567C70.1917 11.7863 69.6615 12.4028 69.3142 13.2246C68.9486 14.0465 68.784 15.0738 68.784 16.2693C68.784 18.1185 69.1862 19.5381 70.0089 20.5094C70.8132 21.4807 72.0015 21.9663 73.5737 21.9663C74.7071 21.9663 75.6394 21.7422 76.3707 21.2939C77.1019 20.8456 77.5772 20.1918 77.7966 19.3326H81.0689C80.7033 21.0884 79.8441 22.452 78.5278 23.4419C77.1567 24.488 75.4932 24.9923 73.4823 24.9923Z" fill="white"/>
<path id="Vector_3" d="M87.7963 24.5627H84.3229V8.27472H87.5038L87.8328 10.5722C88.3447 9.69431 89.0759 9.00319 89.99 8.51754C90.904 8.03189 91.9278 7.78906 93.0612 7.78906C95.0904 7.78906 96.626 8.40546 97.6314 9.61959C98.6369 10.8337 99.1488 12.4775 99.1488 14.5695V24.6H95.6754V15.41C95.6754 13.9344 95.3463 12.8324 94.6882 12.1226C94.0301 11.4128 93.1526 11.0579 92.0375 11.0579C90.7212 11.0579 89.6792 11.4875 88.9297 12.3654C88.1802 13.2433 87.8146 14.4014 87.8146 15.8583V24.5627H87.7963Z" fill="white"/>
<path id="Vector_4" d="M101.562 8.25612H111.269V11.2447H101.562V8.25612ZM108.162 24.5628H104.688V3.1568H108.162V24.5628Z" fill="white"/>
<path id="Vector_5" d="M118.454 24.9925C116.772 24.9925 115.437 24.5255 114.468 23.5916C113.499 22.6576 113.024 21.4622 113.024 19.9679C113.024 18.4549 113.536 17.2594 114.56 16.3628C115.583 15.4663 117.046 14.9433 118.929 14.7938L123.828 14.4016V14.0093C123.828 13.1688 123.682 12.4963 123.371 12.0107C123.06 11.5064 122.658 11.1514 122.128 10.9273C121.616 10.7032 120.995 10.5911 120.3 10.5911C119.057 10.5911 118.106 10.8526 117.448 11.3569C116.772 11.8612 116.443 12.5897 116.443 13.505H113.463C113.463 12.3282 113.755 11.3196 114.322 10.4603C114.889 9.6011 115.711 8.94735 116.772 8.4617C117.832 7.99473 119.075 7.75189 120.483 7.75189C121.872 7.75189 123.06 7.99472 124.066 8.49905C125.071 9.00338 125.857 9.75053 126.406 10.7405C126.954 11.7305 127.228 12.982 127.228 14.495V24.5442H124.212L123.883 22.0225C123.517 22.9004 122.841 23.6289 121.836 24.1706C120.867 24.7123 119.733 24.9925 118.454 24.9925ZM119.569 22.228C120.885 22.228 121.945 21.8171 122.713 21.0139C123.499 20.2107 123.883 19.1086 123.883 17.7451V16.8485L120.172 17.1847C118.874 17.2968 117.942 17.577 117.393 18.0439C116.845 18.5109 116.571 19.09 116.571 19.7998C116.571 20.6216 116.827 21.2194 117.357 21.6303C117.869 22.0412 118.6 22.228 119.569 22.228Z" fill="white"/>
<path id="Vector_6" d="M134.888 24.5627H131.378V0H134.888V24.5627Z" fill="white"/>
<path id="Vector_7" d="M141.798 0.803162V24.5627H139.458V0.803162H141.798ZM148.325 15.8396H141.305V13.6916H147.868C149.55 13.6916 150.866 13.1872 151.798 12.1786C152.73 11.1699 153.187 9.86241 153.187 8.23735C153.187 6.59361 152.73 5.30477 151.798 4.37082C150.866 3.43688 149.604 2.95123 147.996 2.95123H140.299V0.803162H148.325C149.824 0.803162 151.103 1.1207 152.2 1.7371C153.297 2.35351 154.138 3.23141 154.741 4.35214C155.345 5.47288 155.637 6.7804 155.637 8.27471C155.637 9.71298 155.345 11.0018 154.741 12.1599C154.138 13.318 153.297 14.2146 152.2 14.8683C151.103 15.5034 149.824 15.8396 148.325 15.8396Z" fill="white"/>
<path id="Vector_8" d="M167.136 8.29342V10.3481H165.893C164.449 10.3481 163.297 10.7964 162.438 11.7116C161.579 12.6269 161.158 13.841 161.158 15.3914V24.544H158.909V8.48021H161.012L161.213 11.6369H160.994C161.213 10.5909 161.743 9.75037 162.584 9.09661C163.425 8.44285 164.449 8.12531 165.673 8.12531C165.911 8.12531 166.149 8.14399 166.386 8.16267C166.624 8.18134 166.862 8.23738 167.136 8.29342Z" fill="white"/>
<path id="Vector_9" d="M168.397 16.5309C168.397 14.8684 168.745 13.4115 169.439 12.1413C170.134 10.8712 171.085 9.88118 172.291 9.1527C173.498 8.42423 174.869 8.05066 176.386 8.05066C177.922 8.05066 179.293 8.42423 180.499 9.1527C181.706 9.88118 182.656 10.8712 183.333 12.1413C184.028 13.4115 184.375 14.8684 184.375 16.5309C184.375 18.1372 184.028 19.5942 183.333 20.8643C182.638 22.1345 181.688 23.1432 180.499 23.8716C179.293 24.6001 177.922 24.9737 176.386 24.9737C174.869 24.9737 173.498 24.6001 172.291 23.8716C171.085 23.1432 170.134 22.1345 169.439 20.8643C168.745 19.5942 168.397 18.1372 168.397 16.5309ZM170.664 16.4935C170.664 17.7637 170.902 18.8657 171.395 19.837C171.889 20.8083 172.547 21.5555 173.406 22.0972C174.265 22.6388 175.253 22.919 176.386 22.919C177.519 22.919 178.507 22.6575 179.366 22.0972C180.225 21.5555 180.901 20.8083 181.377 19.837C181.87 18.8657 182.108 17.7637 182.108 16.4935C182.108 15.2607 181.87 14.1586 181.377 13.206C180.883 12.2534 180.225 11.5062 179.366 10.9459C178.507 10.3855 177.519 10.124 176.386 10.124C175.253 10.124 174.265 10.4042 173.406 10.9459C172.547 11.5062 171.871 12.2534 171.395 13.206C170.92 14.1586 170.664 15.2607 170.664 16.4935Z" fill="white"/>
</g>
<g id="Group_3">
<g id="Group_4">
<path id="Vector_10" d="M16.8843 1.53175C16.7563 1.32628 16.6101 1.15817 16.4456 0.990061C16.2445 0.765915 16.0251 0.541772 15.7509 0.392341C14.4346 -0.392171 12.7345 0.0748007 11.9667 1.41968L0.998113 20.771C0.230311 22.1158 0.687336 23.8343 2.00357 24.6188C3.3198 25.4033 5.01993 24.9364 5.78773 23.5915L14.4895 8.23746L23.8494 23.4794C24.6537 24.7869 26.3539 25.1978 27.6518 24.376C28.9498 23.5541 29.3337 21.817 28.5293 20.4908L16.8843 1.53175Z" fill="white"/>
</g>
<g id="Group_5">
<path id="Vector_11" d="M39.8088 20.3787L28.3101 1.64384C27.5057 0.336323 25.7873 -0.0746091 24.5076 0.74726C23.2097 1.56913 22.8258 3.30626 23.6301 4.63246L35.1289 23.3674C35.9332 24.6749 37.6517 25.0858 38.9313 24.2639C40.2293 23.4234 40.6132 21.6863 39.8088 20.3787Z" fill="white"/>
</g>
</g>
</g>
</svg>
