<svg width="51" height="51" viewBox="0 0 51 51" fill="none" xmlns="http://www.w3.org/2000/svg">
<rect x="0.333496" y="0.5" width="50" height="50" rx="25" fill="#EBEEF0"/>
<path d="M26.3019 24.7351C27.5613 24.7351 28.7924 24.3616 29.8395 23.6619C30.8866 22.9623 31.7028 21.9678 32.1847 20.8043C32.6667 19.6408 32.7928 18.3605 32.5471 17.1253C32.3014 15.8901 31.6949 14.7555 30.8044 13.865C29.9139 12.9745 28.7793 12.368 27.5441 12.1224C26.309 11.8767 25.0287 12.0028 23.8652 12.4847C22.7016 12.9666 21.7072 13.7828 21.0075 14.8299C20.3078 15.8771 19.9344 17.1082 19.9344 18.3675C19.9344 20.0563 20.6052 21.6759 21.7994 22.8701C22.9935 24.0642 24.6131 24.7351 26.3019 24.7351ZM26.3019 13.8921C27.2015 13.8921 28.0808 14.1588 28.8288 14.6586C29.5767 15.1584 30.1597 15.8687 30.5039 16.6998C30.8482 17.5309 30.9382 18.4454 30.7627 19.3276C30.5873 20.2099 30.1541 21.0203 29.518 21.6564C28.8819 22.2925 28.0715 22.7257 27.1892 22.9012C26.3069 23.0766 25.3924 22.9866 24.5614 22.6423C23.7303 22.2981 23.0199 21.7151 22.5202 20.9672C22.0204 20.2192 21.7537 19.3399 21.7537 18.4403C21.7537 17.843 21.8713 17.2516 22.0999 16.6998C22.3284 16.148 22.6635 15.6466 23.0858 15.2242C23.5082 14.8019 24.0095 14.4669 24.5614 14.2383C25.1132 14.0097 25.7046 13.8921 26.3019 13.8921ZM21.2352 25.8357C26.1578 24.728 31.3077 25.2616 35.8987 27.3549C36.5301 27.6565 37.0628 28.1312 37.4348 28.7239C37.8068 29.3165 38.0028 30.0026 38 30.7024V36.1148C38 36.2342 37.9764 36.3525 37.9307 36.4629C37.885 36.5732 37.818 36.6735 37.7335 36.758C37.6491 36.8424 37.5488 36.9095 37.4384 36.9552C37.3281 37.0009 37.2098 37.0244 37.0903 37.0244C36.9709 37.0244 36.8526 37.0009 36.7422 36.9552C36.6319 36.9095 36.5316 36.8424 36.4471 36.758C36.3626 36.6735 36.2956 36.5732 36.2499 36.4629C36.2042 36.3525 36.1807 36.2342 36.1807 36.1148V30.7024C36.1886 30.3482 36.093 29.9995 35.9055 29.6989C35.7181 29.3984 35.447 29.1591 35.1255 29.0104C32.3599 27.7335 29.348 27.0783 26.3019 27.0911C24.5951 27.0889 22.8942 27.2904 21.2352 27.6914V25.8357Z" fill="#368793"/>
<path d="M22.7523 32.7781C22.0636 32.0895 21.4308 31.4545 20.7951 30.8209C20.524 30.552 20.4327 30.2352 20.5559 29.8786C20.6013 29.7451 20.6789 29.6249 20.7818 29.5286C20.8847 29.4323 21.0097 29.3628 21.1459 29.3262C21.282 29.2897 21.4251 29.2872 21.5624 29.3191C21.6997 29.3509 21.827 29.4161 21.9332 29.5089C22.0651 29.6191 22.1811 29.7474 22.3028 29.8713C23.322 30.8895 24.3407 31.9085 25.3589 32.9281C25.8417 33.4109 25.8431 33.8871 25.3633 34.367C24.2619 35.4703 23.1604 36.5728 22.0586 37.6746C21.8106 37.9225 21.528 38.0566 21.1771 37.9762C20.5015 37.8218 20.2761 37.0114 20.7734 36.5003C21.3482 35.9096 21.9375 35.3326 22.5203 34.749C22.5812 34.6881 22.6377 34.6222 22.732 34.5192H22.392C19.3746 34.5192 16.3569 34.5192 13.339 34.5192C12.6794 34.5192 12.2553 34.0118 12.4105 33.424C12.5148 33.0267 12.8497 32.7817 13.3071 32.781C14.7206 32.781 16.1341 32.781 17.5477 32.781H22.7515L22.7523 32.7781Z" fill="#368793"/>
</svg>
