<svg width="50" height="51" viewBox="0 0 50 51" fill="none" xmlns="http://www.w3.org/2000/svg">
<rect x="0.000244141" y="0.5" width="50" height="50" rx="25" fill="#FAFAFA"/>
<path fill-rule="evenodd" clip-rule="evenodd" d="M31.904 20.4672C31.7362 20.4672 31.5984 20.333 31.5951 20.1645C31.5912 19.975 31.5885 19.799 31.5858 19.6342C31.5722 18.7744 31.5632 18.2061 31.4324 17.9291C31.3948 17.8497 31.3415 17.7955 31.2692 17.7622C31.1758 17.7198 31.0479 17.7042 30.8998 17.7171C30.5285 17.7499 30.1353 17.942 29.96 18.176C29.7797 18.4562 29.4322 18.5914 29.1093 18.5045L25.9004 17.6447C25.7354 17.6006 25.6375 17.431 25.6818 17.2663C25.726 17.1015 25.8953 17.0033 26.0604 17.0478L29.2694 17.9076C29.3352 17.9248 29.4058 17.8969 29.4414 17.8395C29.4455 17.8325 29.4499 17.8261 29.4545 17.8196C29.7317 17.4386 30.2908 17.1498 30.846 17.1015C31.1038 17.079 31.3322 17.1117 31.5252 17.1997C31.7305 17.2931 31.8915 17.4541 31.9914 17.6651C32.1793 18.0627 32.1881 18.6177 32.204 19.6246C32.2067 19.7883 32.2094 19.9638 32.2132 20.1522C32.2166 20.3228 32.0811 20.464 31.9104 20.4672C31.9082 20.4672 31.9061 20.4672 31.904 20.4672Z" fill="#368793" stroke="#368793" stroke-width="0.5"/>
<path fill-rule="evenodd" clip-rule="evenodd" d="M13.4636 12.6184C13.4116 12.6184 13.3594 12.6324 13.3114 12.6592C13.2336 12.7032 13.176 12.7773 13.1532 12.8621L12.6293 14.8173C12.6065 14.9026 12.6195 14.9955 12.6649 15.0722C12.7079 15.1447 12.7747 15.1951 12.853 15.2145L25.0852 18.2077C25.266 18.2522 25.4441 18.1519 25.4903 17.9791L25.8721 16.5546C25.9175 16.385 25.8114 16.2052 25.6355 16.1537L13.5453 12.6302C13.5186 12.6227 13.4911 12.6184 13.4636 12.6184ZM25.1659 18.8356C25.0906 18.8356 25.0143 18.827 24.9382 18.8082L12.706 15.815C12.4648 15.756 12.2612 15.6036 12.1328 15.3867C12.0033 15.1678 11.9665 14.9021 12.0321 14.6573L12.556 12.7021C12.6215 12.4574 12.7863 12.2454 13.0081 12.1208C13.2276 11.9969 13.4798 11.9674 13.7183 12.0366L25.8085 15.5601C26.3047 15.705 26.6011 16.2224 26.4693 16.7146L26.0876 18.1395C25.9758 18.5565 25.5875 18.8356 25.1659 18.8356Z" fill="#368793" stroke="#368793" stroke-width="0.5"/>
<path fill-rule="evenodd" clip-rule="evenodd" d="M23.8119 18.5227C23.7854 18.5227 23.7584 18.5189 23.7317 18.512C23.5667 18.4679 23.4688 18.2983 23.5131 18.133L24.2373 15.4302C24.2815 15.2654 24.4509 15.1677 24.616 15.2117C24.7809 15.2557 24.8787 15.4253 24.8345 15.5901L24.1103 18.2935C24.0732 18.4314 23.9483 18.5227 23.8119 18.5227Z" fill="#368793" stroke="#368793" stroke-width="0.5"/>
<path fill-rule="evenodd" clip-rule="evenodd" d="M13.9796 16.1172C13.9531 16.1172 13.9262 16.114 13.8994 16.107C13.7345 16.0625 13.6366 15.8929 13.6808 15.7281L14.5192 12.5991C14.5635 12.4343 14.7328 12.3367 14.8979 12.3807C15.0628 12.4246 15.1606 12.5943 15.1165 12.7591L14.278 15.888C14.241 16.0265 14.1161 16.1172 13.9796 16.1172Z" fill="#368793" stroke="#368793" stroke-width="0.5"/>
<path fill-rule="evenodd" clip-rule="evenodd" d="M31.2599 35.6633C31.5181 35.696 31.7461 35.6311 31.9572 35.4647C32.6543 34.9141 33.1438 33.2948 33.3002 31.0218C33.3274 30.629 33.3312 30.2731 33.3357 29.9286C33.344 29.1879 33.3517 28.4886 33.5812 27.5676C33.7862 26.7443 34.127 26.3106 34.4279 25.9285C34.8979 25.33 35.3041 24.8137 35.1046 22.7152C35.0132 21.7588 34.5521 21.0965 33.7341 20.7465C32.3029 20.1336 30.0718 20.6006 28.6351 21.4518C29.0033 21.6681 29.3232 21.8935 29.5766 22.1168C29.707 22.2316 29.7167 22.427 29.5981 22.5536C29.4795 22.6798 29.2776 22.6889 29.1471 22.574C27.7437 21.3385 24.1615 20.0767 22.0888 20.8657C21.2646 21.1797 20.8066 21.8006 20.7274 22.7125C20.5448 24.8142 20.9466 25.3311 21.4119 25.9295C21.7089 26.3117 22.0455 26.7443 22.2504 27.5676C22.4797 28.4886 22.4876 29.1879 22.4962 29.9286C22.5001 30.2726 22.5042 30.629 22.5313 31.0218C22.6878 33.2948 23.1773 34.914 23.8745 35.4647C24.0855 35.6316 24.3136 35.6966 24.5718 35.6633C24.6157 35.6558 25.3073 35.5318 25.6103 35.1083C25.7424 34.9237 25.7803 34.7058 25.726 34.4433C25.7255 34.4407 25.7251 34.4385 25.7247 34.4364C25.0924 30.9826 25.963 29.0532 26.9885 28.3995C27.5779 28.0238 28.2538 28.0238 28.8432 28.3995C29.8687 29.0532 30.7392 30.9826 30.107 34.4364C30.1067 34.4385 30.1062 34.4407 30.1058 34.4433C30.0513 34.7069 30.0895 34.9253 30.2228 35.1105C30.5247 35.5302 31.2162 35.6558 31.2599 35.6633ZM31.3917 36.2902C31.3187 36.2902 31.2444 36.2848 31.1691 36.2752C31.167 36.2746 31.1649 36.2746 31.1628 36.2741C31.1224 36.2682 30.1682 36.1157 29.699 35.4636C29.465 35.1384 29.391 34.7557 29.479 34.3253C30.0568 31.1652 29.3086 29.4364 28.4922 28.9163C28.1206 28.6791 27.7113 28.6791 27.3396 28.9163C26.5231 29.4364 25.7749 31.1652 26.3527 34.3253C26.4407 34.7557 26.3667 35.1384 26.1327 35.4636C25.6635 36.1158 24.7093 36.2682 24.6689 36.2741C24.6668 36.2746 24.6646 36.2746 24.6626 36.2752C24.2237 36.3331 23.823 36.222 23.471 35.944C22.3294 35.0423 21.9932 32.4989 21.8943 31.0626C21.8661 30.6531 21.8618 30.2882 21.8578 29.9355C21.8494 29.2002 21.8421 28.5653 21.6297 27.7125C21.4559 27.0142 21.1868 26.6681 20.9019 26.3015C20.3806 25.6306 19.8882 24.9973 20.0912 22.6605C20.1912 21.5113 20.8011 20.6918 21.8552 20.2903C23.6116 19.6216 26.1793 20.22 28.0035 21.1136C29.5579 20.0633 32.2163 19.4209 33.9923 20.1809C35.0231 20.622 35.6277 21.4786 35.7402 22.6583C35.963 24.9967 35.4637 25.6311 34.9355 26.3031C34.6474 26.6691 34.3753 27.0153 34.2018 27.7125C33.9896 28.5653 33.9823 29.2002 33.974 29.9355C33.9696 30.2882 33.9657 30.6531 33.9375 31.0626C33.8383 32.4989 33.5019 35.0423 32.3606 35.944C32.0691 36.1742 31.744 36.2902 31.3917 36.2902Z" fill="#368793" stroke="#368793"/>
<path fill-rule="evenodd" clip-rule="evenodd" d="M37.3261 38.999H18.0162C17.8455 38.999 17.707 38.8605 17.707 38.6898L17.707 31.0025C17.707 29.745 19.2439 28.6287 21.9236 27.9406C22.0891 27.8982 22.2575 27.9975 22.2999 28.1628C22.3425 28.3281 22.2428 28.4966 22.0775 28.5396C19.7631 29.1337 18.3253 30.0778 18.3253 31.0025V38.3807H37.017V31.0025C37.017 30.0767 35.5764 29.1321 33.2578 28.5374C33.0925 28.495 32.9927 28.3265 33.0351 28.1612C33.0775 27.9959 33.246 27.8961 33.4113 27.9385C36.096 28.6271 37.6352 29.7439 37.6352 31.0025L37.6352 38.6898C37.6352 38.8605 37.4967 38.999 37.3261 38.999Z" fill="#368793" stroke="#368793"/>
<path fill-rule="evenodd" clip-rule="evenodd" d="M32.8681 25.1577C32.7852 25.1577 32.7025 25.1249 32.6416 25.0594L31.135 23.4397C31.0721 23.372 31.0428 23.2797 31.0549 23.1885C31.0672 23.0967 31.1197 23.0157 31.1982 22.9668L32.3744 22.2353L31.6154 20.2704C31.5539 20.111 31.6331 19.9317 31.7924 19.8706C31.9518 19.8088 32.1307 19.8882 32.1922 20.0477L33.0436 22.2514C33.0968 22.3899 33.0442 22.5471 32.918 22.6255L31.8435 23.2937L33.0941 24.6381C33.2105 24.7632 33.2036 24.9591 33.0785 25.075C33.0189 25.1303 32.9432 25.1577 32.8681 25.1577Z" fill="#368793" stroke="#368793" stroke-width="0.5"/>
<path fill-rule="evenodd" clip-rule="evenodd" d="M23.3758 25.0829C23.3346 25.0829 23.2933 25.0748 23.2545 25.0582C23.1737 25.0239 23.1113 24.9563 23.0831 24.873L22.4804 23.0971L20.4906 24.0712C20.3372 24.1463 20.1521 24.083 20.077 23.9295C20.0019 23.7765 20.0653 23.5914 20.2186 23.5163L22.5242 22.387C22.604 22.3478 22.6968 22.3451 22.7789 22.379C22.861 22.4133 22.9243 22.4809 22.9529 22.5652L23.5576 24.3476L25.58 23.4014C25.7346 23.3289 25.9187 23.396 25.991 23.5506C26.0634 23.7052 25.9966 23.8893 25.842 23.9617L23.5068 25.0539C23.4654 25.0732 23.4206 25.0829 23.3758 25.0829Z" fill="#368793" stroke="#368793" stroke-width="0.5"/>
</svg>
