<svg width="71" height="71" viewBox="0 0 71 71" fill="none" xmlns="http://www.w3.org/2000/svg">
<g filter="url(#filter0_d_3512_76550)">
<rect x="10.6667" y="9.5" width="50" height="50" rx="25" fill="#EBEEF0"/>
<path d="M36.0521 31.3749C39.1731 31.3749 41.7031 29.0244 41.7031 26.125C41.7031 23.2255 39.1731 20.875 36.0521 20.875C32.9312 20.875 30.4011 23.2255 30.4011 26.125C30.4011 29.0244 32.9312 31.3749 36.0521 31.3749Z" stroke="#368793" stroke-width="2"/>
<path d="M47.3497 41.8749C47.354 41.6597 47.354 41.4405 47.354 41.2187C47.354 37.9572 42.2935 35.3125 36.052 35.3125C29.8105 35.3125 24.75 37.9572 24.75 41.2187C24.75 44.4802 24.75 47.1249 36.052 47.1249C39.2038 47.1249 41.4769 46.9188 43.1157 46.5513" stroke="#368793" stroke-width="2" stroke-linecap="round"/>
</g>
<defs>
<filter id="filter0_d_3512_76550" x="0.666748" y="0.5" width="70" height="70" filterUnits="userSpaceOnUse" color-interpolation-filters="sRGB">
<feFlood flood-opacity="0" result="BackgroundImageFix"/>
<feColorMatrix in="SourceAlpha" type="matrix" values="0 0 0 0 0 0 0 0 0 0 0 0 0 0 0 0 0 0 127 0" result="hardAlpha"/>
<feOffset dy="1"/>
<feGaussianBlur stdDeviation="5"/>
<feComposite in2="hardAlpha" operator="out"/>
<feColorMatrix type="matrix" values="0 0 0 0 0.4 0 0 0 0 0.4 0 0 0 0 0.4 0 0 0 0.25 0"/>
<feBlend mode="normal" in2="BackgroundImageFix" result="effect1_dropShadow_3512_76550"/>
<feBlend mode="normal" in="SourceGraphic" in2="effect1_dropShadow_3512_76550" result="shape"/>
</filter>
</defs>
</svg>
