<svg width="18" height="24" viewBox="0 0 18 24" fill="none" xmlns="http://www.w3.org/2000/svg">
<g id="_x32_4_Medical_Record">
<path id="Vector" d="M3.87029 24H16.366C17.1786 24 17.8397 23.3389 17.8397 22.5263V3.87289C17.8397 3.0584 17.1786 2.39554 16.366 2.39554H15.4427V1.4748C15.4427 0.661764 14.781 0 13.9679 0H1.47515C0.661764 0 0 0.661764 0 1.4748V20.1286C0 20.9419 0.661764 21.6037 1.47515 21.6037H2.39659V22.5263C2.39659 23.3389 3.05765 24 3.87029 24ZM16.366 3.14554C16.7652 3.14554 17.0896 3.47185 17.0896 3.87289V22.5263C17.0896 22.9255 16.7652 23.2499 16.366 23.2499H3.87029C3.4711 23.2499 3.14664 22.9255 3.14664 22.5263V21.6038H13.9679C14.781 21.6038 15.4427 20.942 15.4427 20.1286V3.14554H16.366ZM0.750056 20.1286V1.4748C0.750056 1.07526 1.07526 0.750056 1.4752 0.750056H13.9679C14.3675 0.750056 14.6927 1.07526 14.6927 1.4748V20.1286C14.6927 20.5285 14.3675 20.8537 13.9679 20.8537H1.47515C1.07526 20.8537 0.750056 20.5285 0.750056 20.1286ZM7.71862 8.90228C9.48601 8.90228 10.9238 7.46705 10.9238 5.70256C10.9238 3.93517 9.48606 2.49734 7.71862 2.49734C5.95413 2.49734 4.5189 3.93517 4.5189 5.70256C4.5189 7.46705 5.95413 8.90228 7.71862 8.90228ZM7.71862 3.24734C9.07256 3.24734 10.1738 4.34857 10.1738 5.70251C10.1738 7.05315 9.07256 8.15222 7.71862 8.15222C6.36797 8.15222 5.2689 7.05315 5.2689 5.70251C5.2689 4.34862 6.36797 3.24734 7.71862 3.24734ZM6.35332 5.69961C6.35332 5.49231 6.52105 5.32458 6.72835 5.32458H7.34654V4.70639C7.34654 4.49909 7.51427 4.33136 7.72157 4.33136C7.92887 4.33136 8.0966 4.49909 8.0966 4.70639V5.32458H8.71474C8.92204 5.32458 9.08977 5.49231 9.08977 5.69961C9.08977 5.90691 8.92204 6.07464 8.71474 6.07464H8.09655V6.69283C8.09655 6.90013 7.92882 7.06786 7.72152 7.06786C7.51422 7.06786 7.34649 6.90013 7.34649 6.69283V6.07464H6.7283C6.52105 6.07464 6.35332 5.90691 6.35332 5.69961ZM2.38708 12.1701C2.38708 11.9628 2.55481 11.7951 2.76211 11.7951H3.6755L4.59693 10.4129C4.67932 10.2895 4.82619 10.2266 4.97376 10.2514C5.11988 10.277 5.23744 10.3869 5.27295 10.5312L5.92046 13.16L6.55476 11.8438C6.61704 11.7141 6.74851 11.6317 6.89242 11.6317H8.28113C8.42215 11.6317 8.55106 11.7108 8.61514 11.8364L9.06416 12.7165L10.1698 10.4561C10.2255 10.3422 10.3353 10.2642 10.4613 10.2488C10.5866 10.2302 10.7122 10.2825 10.7939 10.3796L11.8226 11.6046H12.6807C12.888 11.6046 13.0557 11.7723 13.0557 11.9796C13.0557 12.1869 12.888 12.3547 12.6807 12.3547H11.6479C11.537 12.3547 11.4319 12.3056 11.3608 12.221L10.5902 11.3036L9.40807 13.7207C9.34544 13.8482 9.21653 13.9298 9.07446 13.9309C9.07336 13.9309 9.07226 13.9309 9.07116 13.9309C8.93014 13.9309 8.80123 13.8518 8.73715 13.7262L8.05157 12.3818H7.12794L6.14317 14.4254C6.08054 14.5557 5.94833 14.6374 5.80551 14.6374C5.7927 14.6374 5.7799 14.6367 5.76669 14.6352C5.60921 14.6191 5.4792 14.5055 5.44148 14.3521L4.74861 11.5377L4.18829 12.3782C4.11871 12.4826 4.0015 12.5452 3.87624 12.5452H2.76216C2.55481 12.5451 2.38708 12.3774 2.38708 12.1701ZM13.0557 16.7443C13.0557 16.9516 12.8879 17.1193 12.6806 17.1193H5.23484C5.02754 17.1193 4.85981 16.9516 4.85981 16.7443C4.85981 16.537 5.02754 16.3693 5.23484 16.3693H12.6806C12.8879 16.3693 13.0557 16.537 13.0557 16.7443ZM2.38708 16.7443C2.38708 16.537 2.55481 16.3693 2.76211 16.3693H3.40377C3.61107 16.3693 3.77879 16.537 3.77879 16.7443C3.77879 16.9516 3.61107 17.1193 3.40377 17.1193H2.76211C2.55481 17.1193 2.38708 16.9516 2.38708 16.7443ZM13.0557 18.7314C13.0557 18.9387 12.8879 19.1065 12.6806 19.1065H5.23484C5.02754 19.1065 4.85981 18.9387 4.85981 18.7314C4.85981 18.5241 5.02754 18.3564 5.23484 18.3564H12.6806C12.8879 18.3564 13.0557 18.5241 13.0557 18.7314ZM3.40372 19.1065H2.76206C2.55476 19.1065 2.38703 18.9387 2.38703 18.7314C2.38703 18.5241 2.55476 18.3564 2.76206 18.3564H3.40372C3.61102 18.3564 3.77875 18.5241 3.77875 18.7314C3.77875 18.9387 3.61102 19.1065 3.40372 19.1065Z" fill="#050505"/>
</g>
</svg>
