<svg width="206" height="28" viewBox="0 0 206 28" fill="none" xmlns="http://www.w3.org/2000/svg">
<rect width="206" height="28" fill="#7A7A7A"/>
<g clip-path="url(#clip0_119_2106)">
<rect x="-85" y="-92" width="375" height="812" rx="4" fill="#F9F9FA"/>
<path d="M56.8463 27.5104H47.7555V0.481384H56.662C59.2828 0.481384 61.5759 1.04624 63.5825 2.19685C65.5685 3.32655 67.1246 4.91649 68.2302 6.94576C69.3359 8.97503 69.8887 11.339 69.8887 14.0378C69.8887 16.6946 69.3359 19.0168 68.2507 21.0461C67.1655 23.0753 65.6299 24.6444 63.6848 25.795C61.7193 26.9456 59.4466 27.5104 56.8463 27.5104ZM51.8709 2.42698V25.6276L49.9053 23.6611H56.5187C58.3819 23.6611 59.9994 23.2636 61.3302 22.4896C62.6816 21.7155 63.7258 20.6067 64.4629 19.1632C65.2 17.7197 65.5685 16.0252 65.5685 14.0796C65.5685 12.0712 65.2 10.3349 64.4424 8.89135C63.6848 7.44785 62.6201 6.31816 61.2688 5.54411C59.897 4.77005 58.259 4.37257 56.3344 4.37257H49.9053L51.8709 2.42698Z" fill="#121212"/>
<path d="M81.6002 27.9914C79.8394 27.9914 78.2628 27.573 76.932 26.7571C75.5807 25.9412 74.5364 24.8115 73.7584 23.3471C73.0008 21.9036 72.6118 20.2299 72.6118 18.3471C72.6118 16.4434 72.9804 14.7697 73.7175 13.3262C74.4545 11.8827 75.4988 10.753 76.8296 9.91623C78.1605 9.07942 79.6961 8.66101 81.4569 8.66101C83.1972 8.66101 84.7124 9.03758 85.9818 9.79071C87.2512 10.5438 88.2545 11.6108 88.9711 12.9915C89.6877 14.3723 90.0358 15.9831 90.0358 17.845V19.1839L74.6798 19.2258L74.7617 16.6316H86.1047C86.1047 15.2091 85.6952 14.1003 84.8557 13.2635C84.0162 12.4267 82.8901 12.0083 81.4569 12.0083C80.3717 12.0083 79.4299 12.2384 78.6723 12.7196C77.9148 13.2007 77.321 13.8911 76.932 14.8116C76.5225 15.7321 76.3382 16.8827 76.3382 18.2216C76.3382 20.2927 76.7887 21.8827 77.71 22.9705C78.6109 24.0584 79.9418 24.6023 81.7026 24.6023C82.972 24.6023 84.0162 24.3512 84.8352 23.8492C85.6542 23.3471 86.1866 22.6149 86.4323 21.6525H90.0972C89.6877 23.619 88.7254 25.1462 87.2512 26.255C85.7156 27.4265 83.8524 27.9914 81.6002 27.9914Z" fill="#121212"/>
<path d="M97.6319 27.5103H93.7417V9.26775H97.3043L97.6728 11.8409C98.2461 10.8577 99.0651 10.0836 100.089 9.53971C101.113 8.99579 102.259 8.72382 103.529 8.72382C105.801 8.72382 107.521 9.41418 108.647 10.774C109.773 12.1338 110.347 13.9748 110.347 16.3179V27.5521H106.457V17.2593C106.457 15.6066 106.088 14.3723 105.351 13.5773C104.614 12.7824 103.631 12.3849 102.382 12.3849C100.908 12.3849 99.7408 12.866 98.9013 13.8493C98.0619 14.8326 97.6524 16.1296 97.6524 17.7614V27.5103H97.6319Z" fill="#121212"/>
<path d="M113.05 9.24683H123.922V12.5941H113.05V9.24683ZM120.441 27.5103H116.551V3.53558H120.441V27.5103Z" fill="#121212"/>
<path d="M131.968 27.9915C130.084 27.9915 128.59 27.4685 127.505 26.4225C126.419 25.3765 125.887 24.0376 125.887 22.364C125.887 20.6694 126.46 19.3305 127.607 18.3263C128.754 17.3222 130.392 16.7364 132.5 16.569L137.988 16.1297V15.6904C137.988 14.749 137.824 13.9958 137.476 13.4519C137.128 12.8871 136.677 12.4896 136.083 12.2385C135.51 11.9875 134.814 11.862 134.036 11.862C132.644 11.862 131.579 12.1549 130.842 12.7197C130.084 13.2845 129.716 14.1004 129.716 15.1255H126.378C126.378 13.8076 126.706 12.6778 127.341 11.7155C127.976 10.7532 128.897 10.021 130.084 9.47705C131.272 8.95404 132.664 8.68207 134.241 8.68207C135.797 8.68207 137.128 8.95403 138.254 9.51888C139.38 10.0837 140.26 10.9205 140.875 12.0293C141.489 13.1381 141.796 14.5398 141.796 16.2343V27.4894H138.418L138.049 24.6652C137.64 25.6485 136.882 26.4643 135.756 27.071C134.671 27.6777 133.401 27.9915 131.968 27.9915ZM133.217 24.8953C134.691 24.8953 135.879 24.4351 136.739 23.5355C137.619 22.6359 138.049 21.4016 138.049 19.8744V18.8703L133.893 19.2468C132.439 19.3724 131.395 19.6862 130.781 20.2092C130.166 20.7322 129.859 21.3807 129.859 22.1757C129.859 23.0962 130.146 23.7656 130.74 24.2259C131.313 24.6861 132.132 24.8953 133.217 24.8953Z" fill="#121212"/>
<path d="M150.375 27.5102H146.444V0H150.375V27.5102Z" fill="#121212"/>
<path d="M158.114 0.899475V27.5101H155.494V0.899475H158.114ZM165.424 17.7403H157.561V15.3345H164.912C166.796 15.3345 168.27 14.7696 169.314 13.64C170.358 12.5103 170.87 11.0458 170.87 9.22577C170.87 7.38478 170.358 5.94128 169.314 4.89526C168.27 3.84924 166.857 3.30531 165.055 3.30531H156.435V0.899475H165.424C167.103 0.899475 168.536 1.25512 169.764 1.94549C170.993 2.63586 171.935 3.61912 172.61 4.87434C173.286 6.12956 173.614 7.59399 173.614 9.26761C173.614 10.8785 173.286 12.322 172.61 13.619C171.935 14.9161 170.993 15.9203 169.764 16.6525C168.536 17.3638 167.103 17.7403 165.424 17.7403Z" fill="#121212"/>
<path d="M186.492 9.28863V11.5899H185.1C183.483 11.5899 182.193 12.092 181.23 13.117C180.268 14.1421 179.797 15.502 179.797 17.2384V27.4893H177.279V9.49783H179.633L179.859 13.0334H179.613C179.859 11.8618 180.452 10.9204 181.394 10.1882C182.336 9.45599 183.483 9.10034 184.854 9.10034C185.121 9.10034 185.387 9.12126 185.653 9.14219C185.919 9.16311 186.185 9.22587 186.492 9.28863Z" fill="#121212"/>
<path d="M187.905 18.5145C187.905 16.6526 188.294 15.0208 189.072 13.5983C189.85 12.1757 190.915 11.0669 192.266 10.251C193.617 9.43512 195.153 9.01672 196.852 9.01672C198.572 9.01672 200.108 9.43512 201.459 10.251C202.811 11.0669 203.875 12.1757 204.633 13.5983C205.411 15.0208 205.8 16.6526 205.8 18.5145C205.8 20.3137 205.411 21.9455 204.633 23.3681C203.855 24.7906 202.79 25.9203 201.459 26.7362C200.108 27.5521 198.572 27.9705 196.852 27.9705C195.153 27.9705 193.617 27.5521 192.266 26.7362C190.915 25.9203 189.85 24.7906 189.072 23.3681C188.294 21.9455 187.905 20.3137 187.905 18.5145ZM190.444 18.4727C190.444 19.8953 190.71 21.1296 191.263 22.2174C191.816 23.3053 192.553 24.1421 193.515 24.7488C194.477 25.3555 195.583 25.6693 196.852 25.6693C198.122 25.6693 199.228 25.3764 200.19 24.7488C201.152 24.1421 201.91 23.3053 202.442 22.2174C202.995 21.1296 203.261 19.8953 203.261 18.4727C203.261 17.092 202.995 15.8577 202.442 14.7907C201.889 13.7238 201.152 12.887 200.19 12.2594C199.228 11.6318 198.122 11.3389 196.852 11.3389C195.583 11.3389 194.477 11.6527 193.515 12.2594C192.553 12.887 191.795 13.7238 191.263 14.7907C190.731 15.8577 190.444 17.092 190.444 18.4727Z" fill="#121212"/>
<path d="M18.2104 1.71551C18.0671 1.48538 17.9033 1.2971 17.719 1.10882C17.4938 0.857774 17.2481 0.606734 16.941 0.439371C15.4668 -0.439283 13.5627 0.0837256 12.7027 1.58999L0.417886 23.2634C-0.442052 24.7697 0.069816 26.6944 1.544 27.573C3.01818 28.4517 4.92233 27.9287 5.78226 26.4224L15.5282 9.22591L26.0113 26.2969C26.9122 27.7613 28.8163 28.2216 30.27 27.3011C31.7237 26.3806 32.1537 24.435 31.2528 22.9496L18.2104 1.71551Z" fill="#49B7C7"/>
<path d="M43.8858 22.8242L31.0072 1.84111C30.1063 0.376687 28.1817 -0.0835575 26.7485 0.836937C25.2948 1.75743 24.8648 3.70302 25.7657 5.18836L38.6443 26.1714C39.5452 27.6359 41.4698 28.0961 42.903 27.1756C44.3567 26.2342 44.7867 24.2886 43.8858 22.8242Z" fill="#49B7C7"/>
</g>
<defs>
<clipPath id="clip0_119_2106">
<rect x="-85" y="-92" width="375" height="812" rx="4" fill="white"/>
</clipPath>
</defs>
</svg>
