<svg width="315" height="42" viewBox="0 0 315 42" fill="none" xmlns="http://www.w3.org/2000/svg">
<path d="M87.0097 41.2653H73.0952V0.72168H86.7276C90.739 0.72168 94.249 1.56896 97.3202 3.29488C100.36 4.98943 102.742 7.37434 104.434 10.4183C106.126 13.4622 106.973 17.0082 106.973 21.0562C106.973 25.0416 106.126 28.5248 104.465 31.5687C102.804 34.6126 100.454 36.9662 97.4769 38.6921C94.4683 40.418 90.9897 41.2653 87.0097 41.2653ZM79.3943 3.64007V38.441L76.3858 35.4913H86.5083C89.3601 35.4913 91.8359 34.895 93.8729 33.734C95.9413 32.5729 97.5395 30.9097 98.6677 28.7445C99.7959 26.5792 100.36 24.0374 100.36 21.119C100.36 18.1065 99.7959 15.5019 98.6364 13.3366C97.4769 11.1714 95.8472 9.47684 93.7789 8.31576C91.6792 7.15469 89.1721 6.55845 86.2262 6.55845H76.3858L79.3943 3.64007Z" fill="#121212"/>
<path d="M124.898 41.9868C122.203 41.9868 119.79 41.3592 117.753 40.1353C115.685 38.9115 114.086 37.217 112.896 35.0203C111.736 32.8551 111.141 30.3446 111.141 27.5204C111.141 24.6648 111.705 22.1543 112.833 19.9891C113.961 17.8238 115.559 16.1293 117.596 14.874C119.633 13.6188 121.984 12.9912 124.679 12.9912C127.343 12.9912 129.662 13.5561 131.605 14.6858C133.548 15.8155 135.084 17.4159 136.18 19.487C137.277 21.5581 137.81 23.9744 137.81 26.7673V28.7756L114.306 28.8384L114.431 24.9472H131.793C131.793 22.8133 131.166 21.1501 129.881 19.8949C128.596 18.6397 126.873 18.0121 124.679 18.0121C123.018 18.0121 121.576 18.3573 120.417 19.079C119.257 19.8008 118.349 20.8363 117.753 22.2171C117.126 23.5978 116.844 25.3238 116.844 27.3321C116.844 30.4388 117.534 32.8237 118.944 34.4555C120.323 36.0873 122.36 36.9032 125.055 36.9032C126.998 36.9032 128.596 36.5266 129.85 35.7734C131.103 35.0203 131.918 33.922 132.294 32.4785H137.904C137.277 35.4283 135.804 37.719 133.548 39.3822C131.198 41.1395 128.346 41.9868 124.898 41.9868Z" fill="#121212"/>
<path d="M149.437 41.2656H143.482V13.9018H148.935L149.499 17.7616C150.377 16.2868 151.631 15.1257 153.197 14.3098C154.764 13.4939 156.519 13.0859 158.462 13.0859C161.941 13.0859 164.573 14.1215 166.297 16.1612C168.021 18.201 168.898 20.9624 168.898 24.4771V41.3284H162.944V25.8892C162.944 23.4101 162.38 21.5587 161.252 20.3662C160.123 19.1738 158.619 18.5775 156.707 18.5775C154.451 18.5775 152.665 19.2993 151.38 20.7742C150.095 22.249 149.468 24.1946 149.468 26.6423V41.2656H149.437Z" fill="#121212"/>
<path d="M173.035 13.8706H189.676V18.8915H173.035V13.8706ZM184.349 41.2658H178.394V5.30371H184.349V41.2658Z" fill="#121212"/>
<path d="M201.992 41.9867C199.109 41.9867 196.821 41.2022 195.16 39.6331C193.499 38.0641 192.685 36.0558 192.685 33.5453C192.685 31.0035 193.562 28.9951 195.317 27.4889C197.072 25.9826 199.579 25.104 202.807 24.8529L211.206 24.1939V23.5349C211.206 22.1228 210.955 20.9931 210.422 20.1772C209.89 19.33 209.2 18.7337 208.291 18.3571C207.414 17.9806 206.348 17.7923 205.157 17.7923C203.026 17.7923 201.397 18.2316 200.269 19.0789C199.109 19.9262 198.545 21.15 198.545 22.6877H193.437C193.437 20.7107 193.938 19.0161 194.91 17.5726C195.881 16.1291 197.291 15.0308 199.109 14.2149C200.927 13.4304 203.058 13.0225 205.471 13.0225C207.853 13.0225 209.89 13.4304 211.613 14.2777C213.337 15.125 214.684 16.3802 215.625 18.0433C216.565 19.7065 217.035 21.809 217.035 24.3508V41.2335H211.864L211.3 36.9972C210.673 38.4721 209.514 39.6959 207.79 40.6059C206.129 41.516 204.186 41.9867 201.992 41.9867ZM203.904 37.3424C206.16 37.3424 207.978 36.652 209.294 35.3026C210.642 33.9533 211.3 32.1018 211.3 29.811V28.3048L204.938 28.8696C202.713 29.0579 201.115 29.5286 200.175 30.3131C199.234 31.0976 198.764 32.0704 198.764 33.2629C198.764 34.6436 199.203 35.6478 200.112 36.3382C200.989 37.0286 202.243 37.3424 203.904 37.3424Z" fill="#121212"/>
<path d="M230.166 41.2654H224.148V0H230.166V41.2654Z" fill="#121212"/>
<path d="M242.012 1.34961V41.2656H238V1.34961H242.012ZM253.2 26.6109H241.166V23.0022H252.416C255.3 23.0022 257.556 22.1549 259.154 20.4603C260.753 18.7658 261.536 16.5692 261.536 13.8391C261.536 11.0776 260.753 8.91231 259.154 7.34329C257.556 5.77426 255.394 4.95837 252.636 4.95837H239.442V1.34961H253.2C255.77 1.34961 257.963 1.88308 259.844 2.91863C261.724 3.95419 263.166 5.42907 264.2 7.31191C265.234 9.19474 265.735 11.3914 265.735 13.9018C265.735 16.3181 265.234 18.4834 264.2 20.429C263.166 22.3746 261.724 23.8808 259.844 24.9791C257.963 26.0461 255.77 26.6109 253.2 26.6109Z" fill="#121212"/>
<path d="M285.448 13.9328V17.3847H283.317C280.841 17.3847 278.867 18.1378 277.394 19.6755C275.921 21.2131 275.2 23.2528 275.2 25.8574V41.2339H271.345V14.2466H274.949L275.294 19.5499H274.918C275.294 17.7926 276.203 16.3805 277.644 15.2822C279.086 14.1839 280.841 13.6504 282.941 13.6504C283.348 13.6504 283.755 13.6818 284.163 13.7132C284.57 13.7445 284.978 13.8387 285.448 13.9328Z" fill="#121212"/>
<path d="M287.61 27.7721C287.61 24.9793 288.205 22.5316 289.396 20.3977C290.587 18.2638 292.217 16.6007 294.285 15.3768C296.353 14.153 298.704 13.5254 301.305 13.5254C303.937 13.5254 306.288 14.153 308.356 15.3768C310.425 16.6007 312.054 18.2638 313.214 20.3977C314.405 22.5316 315 24.9793 315 27.7721C315 30.4709 314.405 32.9185 313.214 35.0524C312.023 37.1863 310.393 38.8808 308.356 40.1047C306.288 41.3285 303.937 41.9561 301.305 41.9561C298.704 41.9561 296.353 41.3285 294.285 40.1047C292.217 38.8808 290.587 37.1863 289.396 35.0524C288.205 32.9185 287.61 30.4709 287.61 27.7721ZM291.496 27.7094C291.496 29.8433 291.903 31.6947 292.749 33.3265C293.596 34.9583 294.724 36.2135 296.197 37.1235C297.67 38.0336 299.362 38.5043 301.305 38.5043C303.248 38.5043 304.94 38.0649 306.413 37.1235C307.886 36.2135 309.046 34.9583 309.86 33.3265C310.707 31.6947 311.114 29.8433 311.114 27.7094C311.114 25.6383 310.707 23.7868 309.86 22.1864C309.014 20.586 307.886 19.3308 306.413 18.3894C304.94 17.448 303.248 17.0086 301.305 17.0086C299.362 17.0086 297.67 17.4793 296.197 18.3894C294.724 19.3308 293.564 20.586 292.749 22.1864C291.935 23.7868 291.496 25.6383 291.496 27.7094Z" fill="#121212"/>
<path d="M27.8731 2.57323C27.6537 2.22804 27.403 1.94562 27.121 1.6632C26.7763 1.28663 26.4002 0.91007 25.9301 0.659026C23.6737 -0.658955 20.7592 0.125558 19.443 2.38495L0.639622 34.8951C-0.676611 37.1545 0.106861 40.0416 2.36326 41.3595C4.61966 42.6775 7.53418 41.893 8.85041 39.6336L23.7677 13.8388L39.8132 39.4453C41.1921 41.642 44.1067 42.3323 46.3317 40.9516C48.5568 39.5708 49.2149 36.6525 47.836 34.4244L27.8731 2.57323Z" fill="#66BAC7"/>
<path d="M67.1721 34.2358L47.46 2.76112C46.0811 0.564481 43.1352 -0.125886 40.9415 1.25486C38.7164 2.6356 38.0583 5.55398 39.4372 7.782L59.1494 39.2566C60.5283 41.4533 63.4741 42.1437 65.6679 40.7629C67.8929 39.3508 68.5511 36.4324 67.1721 34.2358Z" fill="#368793"/>
</svg>
